<svg xmlns="http://www.w3.org/2000/svg" width="138 " height="40" fill="none" viewBox="0 0 168 59">
    <path fill="#004876" d="M58.837.1v58.467H.097V.1h58.74z"/>
    <path fill="#fff" d="M44.494 25.853h-6.228c-3.495 0-6.187 2.43-9.743 6.685l-6.026 7.335c-2.549 2.76-5.83 4.665-9.422 5.47h1.226c12.053 0 16.633-3.647 21.314-9.138l8.879-10.352z"/>
    <path fill="#FF9D1B" d="M40.468 14.716c-4.974.017-9.59 2.693-12.213 7.08l-9.994 15.363c-4.62 7.396-7.918 8.157-7.918 8.157h2.239c7.303.366 14.297-3.094 18.624-9.214l16.02-21.386h-6.758z"/>
    <path fill="url(#paint0_linear)" d="M40.468 14.716c-4.974.017-9.59 2.693-12.213 7.08l-9.994 15.363c-4.62 7.396-7.918 8.157-7.918 8.157h2.239c7.303.366 14.297-3.094 18.624-9.214l16.02-21.386h-6.758z" opacity=".45"/>
    <path fill="#004876" d="M105.657 15.388H112.43299999999999V46.164H105.657zM152.856 46.164V20.528h-7.896v-5.14H168v5.14h-7.895v25.636h-7.249z"/>
    <path fill="#004876" fill-rule="evenodd" d="M134.795 38.921l2.312 7.243h7.853l-10.165-30.776h-7.972l-10.324 30.776h5.142l2.412-7.243h10.742zm-1.793-5.161h-7.235l3.627-10.853 3.608 10.853zM75.84 46.016V15.388h14.323c2.09 0 4.093.879 5.567 2.442 1.474 1.563 2.296 3.681 2.286 5.886.003 1.483-.363 2.941-1.062 4.227l-.1.17.18.105c3.574 2.178 5.314 6.618 4.244 10.823-1.07 4.205-4.684 7.127-8.811 7.123l-16.627-.148zm7.412-5.136h6.67c2.346 0 4.248-2.007 4.248-4.482 0-2.474-1.902-4.48-4.247-4.48h-6.67v8.962zM87.62 26.78h-4.367V20.44h4.367c1.66 0 3.005 1.42 3.005 3.17 0 1.752-1.345 3.171-3.005 3.171z" clip-rule="evenodd"/>
    <path fill="#004876" d="M105.657 15.388H112.43299999999999V46.164H105.657zM152.856 46.164V20.528h-7.896v-5.14H168v5.14h-7.895v25.636h-7.249z"/>
    <path fill="#004876" fill-rule="evenodd" d="M134.795 38.921l2.312 7.243h7.853l-10.165-30.776h-7.972l-10.324 30.776h5.142l2.412-7.243h10.742zm-1.793-5.161h-7.235l3.627-10.853 3.608 10.853zM75.84 46.016V15.388h14.323c2.09 0 4.093.879 5.567 2.442 1.474 1.563 2.296 3.681 2.286 5.886.003 1.483-.363 2.941-1.062 4.227l-.1.17.18.105c3.574 2.178 5.314 6.618 4.244 10.823-1.07 4.205-4.684 7.127-8.811 7.123l-16.627-.148zm7.412-5.136h6.67c2.346 0 4.248-2.007 4.248-4.482 0-2.474-1.902-4.48-4.247-4.48h-6.67v8.962zM87.62 26.78h-4.367V20.44h4.367c1.66 0 3.005 1.42 3.005 3.17 0 1.752-1.345 3.171-3.005 3.171z" clip-rule="evenodd"/>
    <defs>
        <linearGradient id="paint0_linear" x1="31.036" x2="42.895" y1="48.379" y2="26.811" gradientUnits="userSpaceOnUse">
            <stop stop-color="#FF6B00"/>
            <stop stop-color="#FF6B00"/>
            <stop offset=".29" stop-color="#FF6B00" stop-opacity=".65"/>
            <stop offset=".55" stop-color="#FF6B00" stop-opacity=".37"/>
            <stop offset=".75" stop-color="#FF6B00" stop-opacity=".17"/>
            <stop offset=".91" stop-color="#FF6B00" stop-opacity=".05"/>
            <stop offset="1" stop-color="#FF6B00" stop-opacity=".01"/>
        </linearGradient>
    </defs>
</svg>
